<mxfile host="app.diagrams.net" modified="2023-10-16T07:29:13.128Z" agent="Mozilla/5.0 (Macintosh; Intel Mac OS X 10_15_6) AppleWebKit/605.1.15 (KHTML, like Gecko) Version/15.5 Safari/605.1.15" version="22.0.4" etag="clkrX9GQ3-MB3-T9NgeD" type="github">
  <diagram name="第 1 页" id="OtC9MHoGdYqaUQTOqNx_">
    <mxGraphModel>
      <root>
        <mxCell id="0" />
        <mxCell id="1" parent="0" />
      </root>
    </mxGraphModel>
  </diagram>
</mxfile>
